{"title":"18+.The.Assasins.Code.2018.HC.HDRip x264.AC3.LLG","magnet":"magnet:?xt=urn:btih:5f03feaabe67766f58a995aae5c710c56d211d12&dn=18%2B.The.Assasins.Code.2018.HC.HDRip+x264.AC3.LLG&tr=udp%3A%2F%2Ftracker.leechers-paradise.org%3A6969&tr=udp%3A%2F%2Fzer0day.ch%3A1337&tr=udp%3A%2F%2Fopen.demonii.com%3A1337&tr=udp%3A%2F%2Ftracker.coppersurfer.tk%3A6969&tr=udp%3A%2F%2Fexodus.desync.com%3A6969","uploader":"LifeLongg","categoryP":"video","categoryS":"movies","size":"844319218","seeders":"30","leechers":"50","description":"******************************Screenshots:********************\r\n\r\n <a href=\"\nhttp://picserver4u.com/d/0981.html\" rel=\"nofollow\" target=\"_NEW\">\nhttp://picserver4u.com/d/0981.html</a>\r\n <a href=\"\nhttp://picserver4u.com/d/0982.html\" rel=\"nofollow\" target=\"_NEW\">\nhttp://picserver4u.com/d/0982.html</a>\r\n <a href=\"\nhttp://picserver4u.com/d/0983.html\" rel=\"nofollow\" target=\"_NEW\">\nhttp://picserver4u.com/d/0983.html</a>\r\n <a href=\"\nhttp://picserver4u.com/d/0984.html\" rel=\"nofollow\" target=\"_NEW\">\nhttp://picserver4u.com/d/0984.html</a>\r\n <a href=\"\nhttp://picserver4u.com/d/0985.html\" rel=\"nofollow\" target=\"_NEW\">\nhttp://picserver4u.com/d/0985.html</a>\r\n\r\n************************************************************** \r\n\r\nComplete name                            : 18+.The.Assasins.Code.2018.HC.HDRip x264.AC3.LLG.mp4\r\nFormat                                   : MPEG-4\r\nFormat profile                           : Base Media\r\nCodec ID                                 : isom (isom/iso2/avc1/mp41)\r\nFile size                                : 790 MiB\r\nDuration                                 : 1 h 35 min\r\nOverall bit rate                         : 1 152 kb/s\r\nWriting application                      : Lavf57.56.101\r\n\r\nVideo\r\nID                                       : 1\r\nFormat                                   : AVC\r\nFormat/Info                              : Advanced Video Codec\r\nFormat profile                           : High@L3\r\nFormat settings                          : CABAC / 4 Ref Frames\r\nFormat settings, CABAC                   : Yes\r\nFormat settings, RefFrames               : 4 frames\r\nCodec ID                                 : avc1\r\nCodec ID/Info                            : Advanced Video Coding\r\nDuration                                 : 1 h 35 min\r\nBit rate                                 : 900 kb/s\r\nWidth                                    : 720 pixels\r\nHeight                                   : 304 pixels\r\nDisplay aspect ratio                     : 2.35:1\r\nFrame rate mode                          : Constant\r\nFrame rate                               : 23.976 (23976/1000) FPS\r\nColor space                              : YUV\r\nChroma subsampling                       : 4:2:0\r\nBit depth                                : 8 bits\r\nScan type                                : Progressive\r\nBits/(Pixel*Frame)                       : 0.171\r\nStream size                              : 611 MiB (77%)\r\n\r\nAudio\r\nID                                       : 2\r\nFormat                                   : AC-3\r\nFormat/Info                              : Audio Coding 3\r\nCodec ID                                 : ac-3\r\nDuration                                 : 1 h 35 min\r\nBit rate mode                            : Constant\r\nBit rate                                 : 256 kb/s\r\nChannel(s)                               : 6 channels\r\nChannel positions                        : Front: L C R, Side: L R, LFE\r\nSampling rate                            : 48.0 kHz\r\nFrame rate                               : 31.250 FPS (1536 SPF)\r\nBit depth                                : 16 bits\r\nCompression mode                         : Lossy\r\nStream size                              : 176 MiB (22%)\r\nService kind                             : Complete Main\r\nDefault                                  : Yes\r\nAlternate group                          : 1","last_updated":"2018-05-07T12:13:53.388Z","parsed":{"xt":"urn:btih:5f03feaabe67766f58a995aae5c710c56d211d12","dn":"18 .The.Assasins.Code.2018.HC.HDRip x264.AC3.LLG","tr":["udp://exodus.desync.com:6969","udp://open.demonii.com:1337","udp://tracker.coppersurfer.tk:6969","udp://tracker.leechers-paradise.org:6969","udp://zer0day.ch:1337"],"infoHash":"5f03feaabe67766f58a995aae5c710c56d211d12","infoHashBuffer":{"type":"Buffer","data":[95,3,254,170,190,103,118,111,88,169,149,170,229,199,16,197,109,33,29,18]},"name":"18 .The.Assasins.Code.2018.HC.HDRip x264.AC3.LLG","announce":["udp://exodus.desync.com:6969","udp://open.demonii.com:1337","udp://tracker.coppersurfer.tk:6969","udp://tracker.leechers-paradise.org:6969","udp://zer0day.ch:1337"],"urlList":[]}}